<svg width="24" height="24" viewBox="0 0 24 24" fill="none" xmlns="http://www.w3.org/2000/svg">
<rect width="24" height="24" rx="4" fill="#F5F5F5"/>
<path d="M3.5 12.0003V12C3.5 7.30914 7.30914 3.5 12 3.5C16.6909 3.5 20.5 7.30914 20.5 12V12.0002C20.5006 13.3121 20.1972 14.6062 19.6135 15.781C19.1145 16.7855 18.4222 17.6795 17.5782 18.4127L15.3707 14.5877C15.7946 14.035 16.0773 13.385 16.1915 12.6941C16.3259 11.8804 16.2208 11.0452 15.8889 10.2902C15.557 9.53523 15.0127 8.89311 14.3222 8.44207C13.6318 7.99104 12.8251 7.75058 12.0004 7.75L11.9996 7.75C11.1761 7.75063 10.3705 7.99044 9.68073 8.44029C8.99095 8.89014 8.44668 9.53065 8.11406 10.284C7.78144 11.0373 7.67479 11.8711 7.80708 12.6839C7.91945 13.3743 8.20009 14.0243 8.62179 14.5777L6.41229 18.4041C5.57105 17.6712 4.88108 16.7784 4.38372 15.7756C3.80178 14.6022 3.49932 13.31 3.5 12.0003ZM13.3222 16.0399L15.4706 19.7602C14.3812 20.2488 13.1986 20.5017 12.0007 20.5L11.9993 20.5C10.7975 20.5017 9.6113 20.2472 8.519 19.7558L10.6663 16.036C11.0864 16.175 11.5352 16.25 12 16.25C12.4607 16.25 12.9054 16.1765 13.3222 16.0399Z" stroke="#16161D" stroke-linecap="round"/>
</svg>
